# xmcd
#
# Track frame offsets:
#	150
#	13841
#	27245
#	40720
#	59890
#	77511
#	98172
#	113551
#	130888
#	148885
#	164393
#	182315
#	198150
#
# Disc length: 2829 seconds
#
# Revision: 1
# Processed by: cddbd v1.5.2PL0 Copyright (c) Steve Scherf et al.
# Submitted via: audiograbber 1.83.01
#
DISCID=a80b0b0d
DTITLE=Adrian Ray  - Adrian Ray 
DYEAR=2009
DGENRE=Country
TTITLE0=You Won't Be Lonely Long
TTITLE1=Safest Place To Go
TTITLE2=Can't Get You Off My Mind
TTITLE3=Best Off Me
TTITLE4=Broken Man
TTITLE5=Cheating With The Woman
TTITLE6=Momma Said
TTITLE7=One Man Rodeo
TTITLE8=Judy Bring Your Love To Town
TTITLE9=I'm Gonna Live Myself To Death Before I Die
TTITLE10=Know That I Love You
TTITLE11=John Wayne
TTITLE12=More of That
EXTD=
EXTT0=
EXTT1=
EXTT2=
EXTT3=
EXTT4=
EXTT5=
EXTT6=
EXTT7=
EXTT8=
EXTT9=
EXTT10=
EXTT11=
EXTT12=
PLAYORDER=
